solid elbow_tube
  facet normal 2.174302e-01 1.904230e-01 -9.573208e-01
    outer loop
      vertex 2.0000000000e-01 5.0000000000e-01 1.2000000000e-01
      vertex 2.0000000000e-01 5.3061467459e-01 1.2608963740e-01
      vertex 5.2164784401e-01 4.2608963740e-01 1.7835215599e-01
    endloop
  endfacet
  facet normal -1.375469e-01 -9.090746e-01 -3.932737e-01
    outer loop
      vertex 2.0000000000e-01 5.0000000000e-01 1.2000000000e-01
      vertex 5.2164784401e-01 4.2608963740e-01 1.7835215599e-01
      vertex 5.0000000000e-01 4.2000000000e-01 2.0000000000e-01
    endloop
  endfacet
  facet normal 2.198722e-01 5.419747e-01 -8.111225e-01
    outer loop
      vertex 2.0000000000e-01 5.3061467459e-01 1.2608963740e-01
      vertex 2.0000000000e-01 5.5656854249e-01 1.4343145751e-01
      vertex 5.4000000000e-01 4.4343145751e-01 1.6000000000e-01
    endloop
  endfacet
  facet normal -9.908288e-02 -6.718953e-01 -7.339886e-01
    outer loop
      vertex 2.0000000000e-01 5.3061467459e-01 1.2608963740e-01
      vertex 5.4000000000e-01 4.4343145751e-01 1.6000000000e-01
      vertex 5.2164784401e-01 4.2608963740e-01 1.7835215599e-01
    endloop
  endfacet
  facet normal 2.079297e-01 8.132968e-01 -5.434276e-01
    outer loop
      vertex 2.0000000000e-01 5.5656854249e-01 1.4343145751e-01
      vertex 2.0000000000e-01 5.7391036260e-01 1.6938532541e-01
      vertex 5.5226251860e-01 4.6938532541e-01 1.4773748140e-01
    endloop
  endfacet
  facet normal -8.586241e-02 -3.921616e-01 -9.158804e-01
    outer loop
      vertex 2.0000000000e-01 5.5656854249e-01 1.4343145751e-01
      vertex 5.5226251860e-01 4.6938532541e-01 1.4773748140e-01
      vertex 5.4000000000e-01 4.4343145751e-01 1.6000000000e-01
    endloop
  endfacet
  facet normal 1.858064e-01 9.637063e-01 -1.916931e-01
    outer loop
      vertex 2.0000000000e-01 5.7391036260e-01 1.6938532541e-01
      vertex 2.0000000000e-01 5.8000000000e-01 2.0000000000e-01
      vertex 5.5656854249e-01 5.0000000000e-01 1.4343145751e-01
    endloop
  endfacet
  facet normal -9.779777e-02 -1.251120e-01 -9.873108e-01
    outer loop
      vertex 2.0000000000e-01 5.7391036260e-01 1.6938532541e-01
      vertex 5.5656854249e-01 5.0000000000e-01 1.4343145751e-01
      vertex 5.5226251860e-01 4.6938532541e-01 1.4773748140e-01
    endloop
  endfacet
  facet normal 1.641862e-01 9.674754e-01 1.924428e-01
    outer loop
      vertex 2.0000000000e-01 5.8000000000e-01 2.0000000000e-01
      vertex 2.0000000000e-01 5.7391036260e-01 2.3061467459e-01
      vertex 5.5226251860e-01 5.3061467459e-01 1.4773748140e-01
    endloop
  endfacet
  facet normal -1.291712e-01 1.202760e-01 -9.843010e-01
    outer loop
      vertex 2.0000000000e-01 5.8000000000e-01 2.0000000000e-01
      vertex 5.5226251860e-01 5.3061467459e-01 1.4773748140e-01
      vertex 5.5656854249e-01 5.0000000000e-01 1.4343145751e-01
    endloop
  endfacet
  facet normal 1.558673e-01 8.213074e-01 5.487801e-01
    outer loop
      vertex 2.0000000000e-01 5.7391036260e-01 2.3061467459e-01
      vertex 2.0000000000e-01 5.5656854249e-01 2.5656854249e-01
      vertex 5.4000000000e-01 5.5656854249e-01 1.6000000000e-01
    endloop
  endfacet
  facet normal -1.729977e-01 3.527445e-01 -9.195886e-01
    outer loop
      vertex 2.0000000000e-01 5.7391036260e-01 2.3061467459e-01
      vertex 5.4000000000e-01 5.5656854249e-01 1.6000000000e-01
      vertex 5.5226251860e-01 5.3061467459e-01 1.4773748140e-01
    endloop
  endfacet
  facet normal 1.697386e-01 5.475084e-01 8.194043e-01
    outer loop
      vertex 2.0000000000e-01 5.5656854249e-01 2.5656854249e-01
      vertex 2.0000000000e-01 5.3061467459e-01 2.7391036260e-01
      vertex 5.2164784401e-01 5.7391036260e-01 1.7835215599e-01
    endloop
  endfacet
  facet normal -2.207950e-01 5.890099e-01 -7.773783e-01
    outer loop
      vertex 2.0000000000e-01 5.5656854249e-01 2.5656854249e-01
      vertex 5.2164784401e-01 5.7391036260e-01 1.7835215599e-01
      vertex 5.4000000000e-01 5.5656854249e-01 1.6000000000e-01
    endloop
  endfacet
  facet normal 2.050660e-01 1.909443e-01 9.599418e-01
    outer loop
      vertex 2.0000000000e-01 5.3061467459e-01 2.7391036260e-01
      vertex 2.0000000000e-01 5.0000000000e-01 2.8000000000e-01
      vertex 5.0000000000e-01 5.8000000000e-01 2.0000000000e-01
    endloop
  endfacet
  facet normal -2.580835e-01 8.314733e-01 -4.919808e-01
    outer loop
      vertex 2.0000000000e-01 5.3061467459e-01 2.7391036260e-01
      vertex 5.0000000000e-01 5.8000000000e-01 2.0000000000e-01
      vertex 5.2164784401e-01 5.7391036260e-01 1.7835215599e-01
    endloop
  endfacet
  facet normal 2.492821e-01 -1.889315e-01 9.498228e-01
    outer loop
      vertex 2.0000000000e-01 5.0000000000e-01 2.8000000000e-01
      vertex 2.0000000000e-01 4.6938532541e-01 2.7391036260e-01
      vertex 4.7835215599e-01 5.7391036260e-01 2.2164784401e-01
    endloop
  endfacet
  facet normal -2.528043e-01 9.673247e-01 1.930855e-02
    outer loop
      vertex 2.0000000000e-01 5.0000000000e-01 2.8000000000e-01
      vertex 4.7835215599e-01 5.7391036260e-01 2.2164784401e-01
      vertex 5.0000000000e-01 5.8000000000e-01 2.0000000000e-01
    endloop
  endfacet
  facet normal 2.827138e-01 -5.329054e-01 7.975492e-01
    outer loop
      vertex 2.0000000000e-01 4.6938532541e-01 2.7391036260e-01
      vertex 2.0000000000e-01 4.4343145751e-01 2.5656854249e-01
      vertex 4.6000000000e-01 5.5656854249e-01 2.4000000000e-01
    endloop
  endfacet
  facet normal -1.958314e-01 8.029684e-01 5.629314e-01
    outer loop
      vertex 2.0000000000e-01 4.6938532541e-01 2.7391036260e-01
      vertex 4.6000000000e-01 5.5656854249e-01 2.4000000000e-01
      vertex 4.7835215599e-01 5.7391036260e-01 2.2164784401e-01
    endloop
  endfacet
  facet normal 2.893368e-01 -7.959055e-01 5.318070e-01
    outer loop
      vertex 2.0000000000e-01 4.4343145751e-01 2.5656854249e-01
      vertex 2.0000000000e-01 4.2608963740e-01 2.3061467459e-01
      vertex 4.4773748140e-01 5.3061467459e-01 2.5226251860e-01
    endloop
  endfacet
  facet normal -1.541595e-01 4.806911e-01 8.632328e-01
    outer loop
      vertex 2.0000000000e-01 4.4343145751e-01 2.5656854249e-01
      vertex 4.4773748140e-01 5.3061467459e-01 2.5226251860e-01
      vertex 4.6000000000e-01 5.5656854249e-01 2.4000000000e-01
    endloop
  endfacet
  facet normal 2.669345e-01 -9.451972e-01 1.880114e-01
    outer loop
      vertex 2.0000000000e-01 4.2608963740e-01 2.3061467459e-01
      vertex 2.0000000000e-01 4.2000000000e-01 2.0000000000e-01
      vertex 4.4343145751e-01 5.0000000000e-01 2.5656854249e-01
    endloop
  endfacet
  facet normal -1.521679e-01 1.586153e-01 9.755440e-01
    outer loop
      vertex 2.0000000000e-01 4.2608963740e-01 2.3061467459e-01
      vertex 4.4343145751e-01 5.0000000000e-01 2.5656854249e-01
      vertex 4.4773748140e-01 5.3061467459e-01 2.5226251860e-01
    endloop
  endfacet
  facet normal 2.303088e-01 -9.544194e-01 -1.898458e-01
    outer loop
      vertex 2.0000000000e-01 4.2000000000e-01 2.0000000000e-01
      vertex 2.0000000000e-01 4.2608963740e-01 1.6938532541e-01
      vertex 4.4773748140e-01 4.6938532541e-01 2.5226251860e-01
    endloop
  endfacet
  facet normal -1.728955e-01 -1.609892e-01 9.716942e-01
    outer loop
      vertex 2.0000000000e-01 4.2000000000e-01 2.0000000000e-01
      vertex 4.4773748140e-01 4.6938532541e-01 2.5226251860e-01
      vertex 4.4343145751e-01 5.0000000000e-01 2.5656854249e-01
    endloop
  endfacet
  facet normal 2.020909e-01 -8.143137e-01 -5.441070e-01
    outer loop
      vertex 2.0000000000e-01 4.2608963740e-01 1.6938532541e-01
      vertex 2.0000000000e-01 4.4343145751e-01 1.4343145751e-01
      vertex 4.6000000000e-01 4.4343145751e-01 2.4000000000e-01
    endloop
  endfacet
  facet normal -1.971715e-01 -4.934149e-01 8.471512e-01
    outer loop
      vertex 2.0000000000e-01 4.2608963740e-01 1.6938532541e-01
      vertex 4.6000000000e-01 4.4343145751e-01 2.4000000000e-01
      vertex 4.4773748140e-01 4.6938532541e-01 2.5226251860e-01
    endloop
  endfacet
  facet normal 1.951997e-01 -5.448830e-01 -8.154751e-01
    outer loop
      vertex 2.0000000000e-01 4.4343145751e-01 1.4343145751e-01
      vertex 2.0000000000e-01 4.6938532541e-01 1.2608963740e-01
      vertex 4.7835215599e-01 4.2608963740e-01 2.2164784401e-01
    endloop
  endfacet
  facet normal -2.062072e-01 -8.057561e-01 5.551898e-01
    outer loop
      vertex 2.0000000000e-01 4.4343145751e-01 1.4343145751e-01
      vertex 4.7835215599e-01 4.2608963740e-01 2.2164784401e-01
      vertex 4.6000000000e-01 4.4343145751e-01 2.4000000000e-01
    endloop
  endfacet
  facet normal 2.050660e-01 -1.909443e-01 -9.599418e-01
    outer loop
      vertex 2.0000000000e-01 4.6938532541e-01 1.2608963740e-01
      vertex 2.0000000000e-01 5.0000000000e-01 1.2000000000e-01
      vertex 5.0000000000e-01 4.2000000000e-01 2.0000000000e-01
    endloop
  endfacet
  facet normal -1.836864e-01 -9.787051e-01 9.162783e-02
    outer loop
      vertex 2.0000000000e-01 4.6938532541e-01 1.2608963740e-01
      vertex 5.0000000000e-01 4.2000000000e-01 2.0000000000e-01
      vertex 4.7835215599e-01 4.2608963740e-01 2.2164784401e-01
    endloop
  endfacet
  facet normal 2.672186e-01 -9.636282e-01 -3.854439e-03
    outer loop
      vertex 5.0000000000e-01 4.2000000000e-01 2.0000000000e-01
      vertex 5.2164784401e-01 4.2608963740e-01 1.7835215599e-01
      vertex 5.3061467459e-01 4.2608963740e-01 8.0000000000e-01
    endloop
  endfacet
  facet normal 1.950903e-01 -9.807853e-01 0.000000e+00
    outer loop
      vertex 5.0000000000e-01 4.2000000000e-01 2.0000000000e-01
      vertex 5.3061467459e-01 4.2608963740e-01 8.0000000000e-01
      vertex 5.0000000000e-01 4.2000000000e-01 8.0000000000e-01
    endloop
  endfacet
  facet normal 6.773910e-01 -7.354141e-01 -1.753653e-02
    outer loop
      vertex 5.2164784401e-01 4.2608963740e-01 1.7835215599e-01
      vertex 5.4000000000e-01 4.4343145751e-01 1.6000000000e-01
      vertex 5.5656854249e-01 4.4343145751e-01 8.0000000000e-01
    endloop
  endfacet
  facet normal 5.555524e-01 -8.314429e-01 -8.013450e-03
    outer loop
      vertex 5.2164784401e-01 4.2608963740e-01 1.7835215599e-01
      vertex 5.5656854249e-01 4.4343145751e-01 8.0000000000e-01
      vertex 5.3061467459e-01 4.2608963740e-01 8.0000000000e-01
    endloop
  endfacet
  facet normal 8.982452e-01 -4.384824e-01 -2.981173e-02
    outer loop
      vertex 5.4000000000e-01 4.4343145751e-01 1.6000000000e-01
      vertex 5.5226251860e-01 4.6938532541e-01 1.4773748140e-01
      vertex 5.7391036260e-01 4.6938532541e-01 8.0000000000e-01
    endloop
  endfacet
  facet normal 8.312771e-01 -5.554416e-01 -2.152039e-02
    outer loop
      vertex 5.4000000000e-01 4.4343145751e-01 1.6000000000e-01
      vertex 5.7391036260e-01 4.6938532541e-01 8.0000000000e-01
      vertex 5.5656854249e-01 4.4343145751e-01 8.0000000000e-01
    endloop
  endfacet
  facet normal 9.889393e-01 -1.440606e-01 -3.529302e-02
    outer loop
      vertex 5.5226251860e-01 4.6938532541e-01 1.4773748140e-01
      vertex 5.5656854249e-01 5.0000000000e-01 1.4343145751e-01
      vertex 5.8000000000e-01 5.0000000000e-01 8.0000000000e-01
    endloop
  endfacet
  facet normal 9.802661e-01 -1.949870e-01 -3.253391e-02
    outer loop
      vertex 5.5226251860e-01 4.6938532541e-01 1.4773748140e-01
      vertex 5.8000000000e-01 5.0000000000e-01 8.0000000000e-01
      vertex 5.7391036260e-01 4.6938532541e-01 8.0000000000e-01
    endloop
  endfacet
  facet normal 9.890720e-01 1.437323e-01 -3.282616e-02
    outer loop
      vertex 5.5656854249e-01 5.0000000000e-01 1.4343145751e-01
      vertex 5.5226251860e-01 5.3061467459e-01 1.4773748140e-01
      vertex 5.7391036260e-01 5.3061467459e-01 8.0000000000e-01
    endloop
  endfacet
  facet normal 9.801850e-01 1.949709e-01 -3.498060e-02
    outer loop
      vertex 5.5656854249e-01 5.0000000000e-01 1.4343145751e-01
      vertex 5.7391036260e-01 5.3061467459e-01 8.0000000000e-01
      vertex 5.8000000000e-01 5.0000000000e-01 8.0000000000e-01
    endloop
  endfacet
  facet normal 8.996206e-01 4.360508e-01 -2.328969e-02
    outer loop
      vertex 5.5226251860e-01 5.3061467459e-01 1.4773748140e-01
      vertex 5.4000000000e-01 5.5656854249e-01 1.6000000000e-01
      vertex 5.5656854249e-01 5.5656854249e-01 8.0000000000e-01
    endloop
  endfacet
  facet normal 8.311532e-01 5.553588e-01 -2.758502e-02
    outer loop
      vertex 5.5226251860e-01 5.3061467459e-01 1.4773748140e-01
      vertex 5.5656854249e-01 5.5656854249e-01 8.0000000000e-01
      vertex 5.7391036260e-01 5.3061467459e-01 8.0000000000e-01
    endloop
  endfacet
  facet normal 6.815723e-01 7.316847e-01 -9.831199e-03
    outer loop
      vertex 5.4000000000e-01 5.5656854249e-01 1.6000000000e-01
      vertex 5.2164784401e-01 5.7391036260e-01 1.7835215599e-01
      vertex 5.3061467459e-01 5.7391036260e-01 8.0000000000e-01
    endloop
  endfacet
  facet normal 5.555128e-01 8.313836e-01 -1.438131e-02
    outer loop
      vertex 5.4000000000e-01 5.5656854249e-01 1.6000000000e-01
      vertex 5.3061467459e-01 5.7391036260e-01 8.0000000000e-01
      vertex 5.5656854249e-01 5.5656854249e-01 8.0000000000e-01
    endloop
  endfacet
  facet normal 2.707943e-01 9.626372e-01 0.000000e+00
    outer loop
      vertex 5.2164784401e-01 5.7391036260e-01 1.7835215599e-01
      vertex 5.0000000000e-01 5.8000000000e-01 2.0000000000e-01
      vertex 5.0000000000e-01 5.8000000000e-01 8.0000000000e-01
    endloop
  endfacet
  facet normal 1.950895e-01 9.807814e-01 -2.814029e-03
    outer loop
      vertex 5.2164784401e-01 5.7391036260e-01 1.7835215599e-01
      vertex 5.0000000000e-01 5.8000000000e-01 8.0000000000e-01
      vertex 5.3061467459e-01 5.7391036260e-01 8.0000000000e-01
    endloop
  endfacet
  facet normal -2.747367e-01 9.615101e-01 -4.259546e-03
    outer loop
      vertex 5.0000000000e-01 5.8000000000e-01 2.0000000000e-01
      vertex 4.7835215599e-01 5.7391036260e-01 2.2164784401e-01
      vertex 4.6938532541e-01 5.7391036260e-01 8.0000000000e-01
    endloop
  endfacet
  facet normal -1.950903e-01 9.807853e-01 0.000000e+00
    outer loop
      vertex 5.0000000000e-01 5.8000000000e-01 2.0000000000e-01
      vertex 4.6938532541e-01 5.7391036260e-01 8.0000000000e-01
      vertex 5.0000000000e-01 5.8000000000e-01 8.0000000000e-01
    endloop
  endfacet
  facet normal -6.974951e-01 7.162924e-01 -2.063657e-02
    outer loop
      vertex 4.7835215599e-01 5.7391036260e-01 2.2164784401e-01
      vertex 4.6000000000e-01 5.5656854249e-01 2.4000000000e-01
      vertex 4.4343145751e-01 5.5656854249e-01 8.0000000000e-01
    endloop
  endfacet
  facet normal -5.555496e-01 8.314388e-01 -8.613298e-03
    outer loop
      vertex 4.7835215599e-01 5.7391036260e-01 2.2164784401e-01
      vertex 4.4343145751e-01 5.5656854249e-01 8.0000000000e-01
      vertex 4.6938532541e-01 5.7391036260e-01 8.0000000000e-01
    endloop
  endfacet
  facet normal -9.100327e-01 4.129732e-01 -3.596658e-02
    outer loop
      vertex 4.6000000000e-01 5.5656854249e-01 2.4000000000e-01
      vertex 4.4773748140e-01 5.3061467459e-01 2.5226251860e-01
      vertex 4.2608963740e-01 5.3061467459e-01 8.0000000000e-01
    endloop
  endfacet
  facet normal -8.312181e-01 5.554022e-01 -2.459299e-02
    outer loop
      vertex 4.6000000000e-01 5.5656854249e-01 2.4000000000e-01
      vertex 4.2608963740e-01 5.3061467459e-01 8.0000000000e-01
      vertex 4.4343145751e-01 5.5656854249e-01 8.0000000000e-01
    endloop
  endfacet
  facet normal -9.901607e-01 1.332634e-01 -4.269335e-02
    outer loop
      vertex 4.4773748140e-01 5.3061467459e-01 2.5226251860e-01
      vertex 4.4343145751e-01 5.0000000000e-01 2.5656854249e-01
      vertex 4.2000000000e-01 5.0000000000e-01 8.0000000000e-01
    endloop
  endfacet
  facet normal -9.800493e-01 1.949439e-01 -3.873380e-02
    outer loop
      vertex 4.4773748140e-01 5.3061467459e-01 2.5226251860e-01
      vertex 4.2000000000e-01 5.0000000000e-01 8.0000000000e-01
      vertex 4.2608963740e-01 5.3061467459e-01 8.0000000000e-01
    endloop
  endfacet
  facet normal -9.902387e-01 -1.337747e-01 -3.913651e-02
    outer loop
      vertex 4.4343145751e-01 5.0000000000e-01 2.5656854249e-01
      vertex 4.4773748140e-01 4.6938532541e-01 2.5226251860e-01
      vertex 4.2608963740e-01 4.6938532541e-01 8.0000000000e-01
    endloop
  endfacet
  facet normal -9.799095e-01 -1.949161e-01 -4.225134e-02
    outer loop
      vertex 4.4343145751e-01 5.0000000000e-01 2.5656854249e-01
      vertex 4.2608963740e-01 4.6938532541e-01 8.0000000000e-01
      vertex 4.2000000000e-01 5.0000000000e-01 8.0000000000e-01
    endloop
  endfacet
  facet normal -9.086807e-01 -4.166253e-01 -2.688485e-02
    outer loop
      vertex 4.4773748140e-01 4.6938532541e-01 2.5226251860e-01
      vertex 4.6000000000e-01 4.4343145751e-01 2.4000000000e-01
      vertex 4.4343145751e-01 4.4343145751e-01 8.0000000000e-01
    endloop
  endfacet
  facet normal -8.310210e-01 -5.552705e-01 -3.284386e-02
    outer loop
      vertex 4.4773748140e-01 4.6938532541e-01 2.5226251860e-01
      vertex 4.4343145751e-01 4.4343145751e-01 8.0000000000e-01
      vertex 4.2608963740e-01 4.6938532541e-01 8.0000000000e-01
    endloop
  endfacet
  facet normal -6.924276e-01 -7.214075e-01 -1.073547e-02
    outer loop
      vertex 4.6000000000e-01 4.4343145751e-01 2.4000000000e-01
      vertex 4.7835215599e-01 4.2608963740e-01 2.2164784401e-01
      vertex 4.6938532541e-01 4.2608963740e-01 8.0000000000e-01
    endloop
  endfacet
  facet normal -5.554952e-01 -8.313573e-01 -1.643526e-02
    outer loop
      vertex 4.6000000000e-01 4.4343145751e-01 2.4000000000e-01
      vertex 4.6938532541e-01 4.2608963740e-01 8.0000000000e-01
      vertex 4.4343145751e-01 4.4343145751e-01 8.0000000000e-01
    endloop
  endfacet
  facet normal -2.707943e-01 -9.626372e-01 0.000000e+00
    outer loop
      vertex 4.7835215599e-01 4.2608963740e-01 2.2164784401e-01
      vertex 5.0000000000e-01 4.2000000000e-01 2.0000000000e-01
      vertex 5.0000000000e-01 4.2000000000e-01 8.0000000000e-01
    endloop
  endfacet
  facet normal -1.950894e-01 -9.807808e-01 -3.024686e-03
    outer loop
      vertex 4.7835215599e-01 4.2608963740e-01 2.2164784401e-01
      vertex 5.0000000000e-01 4.2000000000e-01 8.0000000000e-01
      vertex 4.6938532541e-01 4.2608963740e-01 8.0000000000e-01
    endloop
  endfacet
  facet normal -1.000000e+00 0.000000e+00 0.000000e+00
    outer loop
      vertex 2.0000000000e-01 5.0000000000e-01 2.0000000000e-01
      vertex 2.0000000000e-01 5.3061467459e-01 1.2608963740e-01
      vertex 2.0000000000e-01 5.0000000000e-01 1.2000000000e-01
    endloop
  endfacet
  facet normal 0.000000e+00 0.000000e+00 1.000000e+00
    outer loop
      vertex 5.0000000000e-01 5.0000000000e-01 8.0000000000e-01
      vertex 5.0000000000e-01 4.2000000000e-01 8.0000000000e-01
      vertex 5.3061467459e-01 4.2608963740e-01 8.0000000000e-01
    endloop
  endfacet
  facet normal -1.000000e+00 0.000000e+00 0.000000e+00
    outer loop
      vertex 2.0000000000e-01 5.0000000000e-01 2.0000000000e-01
      vertex 2.0000000000e-01 5.5656854249e-01 1.4343145751e-01
      vertex 2.0000000000e-01 5.3061467459e-01 1.2608963740e-01
    endloop
  endfacet
  facet normal 0.000000e+00 0.000000e+00 1.000000e+00
    outer loop
      vertex 5.0000000000e-01 5.0000000000e-01 8.0000000000e-01
      vertex 5.3061467459e-01 4.2608963740e-01 8.0000000000e-01
      vertex 5.5656854249e-01 4.4343145751e-01 8.0000000000e-01
    endloop
  endfacet
  facet normal -1.000000e+00 0.000000e+00 0.000000e+00
    outer loop
      vertex 2.0000000000e-01 5.0000000000e-01 2.0000000000e-01
      vertex 2.0000000000e-01 5.7391036260e-01 1.6938532541e-01
      vertex 2.0000000000e-01 5.5656854249e-01 1.4343145751e-01
    endloop
  endfacet
  facet normal 0.000000e+00 0.000000e+00 1.000000e+00
    outer loop
      vertex 5.0000000000e-01 5.0000000000e-01 8.0000000000e-01
      vertex 5.5656854249e-01 4.4343145751e-01 8.0000000000e-01
      vertex 5.7391036260e-01 4.6938532541e-01 8.0000000000e-01
    endloop
  endfacet
  facet normal -1.000000e+00 0.000000e+00 0.000000e+00
    outer loop
      vertex 2.0000000000e-01 5.0000000000e-01 2.0000000000e-01
      vertex 2.0000000000e-01 5.8000000000e-01 2.0000000000e-01
      vertex 2.0000000000e-01 5.7391036260e-01 1.6938532541e-01
    endloop
  endfacet
  facet normal -0.000000e+00 0.000000e+00 1.000000e+00
    outer loop
      vertex 5.0000000000e-01 5.0000000000e-01 8.0000000000e-01
      vertex 5.7391036260e-01 4.6938532541e-01 8.0000000000e-01
      vertex 5.8000000000e-01 5.0000000000e-01 8.0000000000e-01
    endloop
  endfacet
  facet normal -1.000000e+00 0.000000e+00 0.000000e+00
    outer loop
      vertex 2.0000000000e-01 5.0000000000e-01 2.0000000000e-01
      vertex 2.0000000000e-01 5.7391036260e-01 2.3061467459e-01
      vertex 2.0000000000e-01 5.8000000000e-01 2.0000000000e-01
    endloop
  endfacet
  facet normal 0.000000e+00 0.000000e+00 1.000000e+00
    outer loop
      vertex 5.0000000000e-01 5.0000000000e-01 8.0000000000e-01
      vertex 5.8000000000e-01 5.0000000000e-01 8.0000000000e-01
      vertex 5.7391036260e-01 5.3061467459e-01 8.0000000000e-01
    endloop
  endfacet
  facet normal -1.000000e+00 0.000000e+00 0.000000e+00
    outer loop
      vertex 2.0000000000e-01 5.0000000000e-01 2.0000000000e-01
      vertex 2.0000000000e-01 5.5656854249e-01 2.5656854249e-01
      vertex 2.0000000000e-01 5.7391036260e-01 2.3061467459e-01
    endloop
  endfacet
  facet normal 0.000000e+00 0.000000e+00 1.000000e+00
    outer loop
      vertex 5.0000000000e-01 5.0000000000e-01 8.0000000000e-01
      vertex 5.7391036260e-01 5.3061467459e-01 8.0000000000e-01
      vertex 5.5656854249e-01 5.5656854249e-01 8.0000000000e-01
    endloop
  endfacet
  facet normal -1.000000e+00 0.000000e+00 0.000000e+00
    outer loop
      vertex 2.0000000000e-01 5.0000000000e-01 2.0000000000e-01
      vertex 2.0000000000e-01 5.3061467459e-01 2.7391036260e-01
      vertex 2.0000000000e-01 5.5656854249e-01 2.5656854249e-01
    endloop
  endfacet
  facet normal 0.000000e+00 0.000000e+00 1.000000e+00
    outer loop
      vertex 5.0000000000e-01 5.0000000000e-01 8.0000000000e-01
      vertex 5.5656854249e-01 5.5656854249e-01 8.0000000000e-01
      vertex 5.3061467459e-01 5.7391036260e-01 8.0000000000e-01
    endloop
  endfacet
  facet normal -1.000000e+00 0.000000e+00 0.000000e+00
    outer loop
      vertex 2.0000000000e-01 5.0000000000e-01 2.0000000000e-01
      vertex 2.0000000000e-01 5.0000000000e-01 2.8000000000e-01
      vertex 2.0000000000e-01 5.3061467459e-01 2.7391036260e-01
    endloop
  endfacet
  facet normal 0.000000e+00 0.000000e+00 1.000000e+00
    outer loop
      vertex 5.0000000000e-01 5.0000000000e-01 8.0000000000e-01
      vertex 5.3061467459e-01 5.7391036260e-01 8.0000000000e-01
      vertex 5.0000000000e-01 5.8000000000e-01 8.0000000000e-01
    endloop
  endfacet
  facet normal -1.000000e+00 0.000000e+00 0.000000e+00
    outer loop
      vertex 2.0000000000e-01 5.0000000000e-01 2.0000000000e-01
      vertex 2.0000000000e-01 4.6938532541e-01 2.7391036260e-01
      vertex 2.0000000000e-01 5.0000000000e-01 2.8000000000e-01
    endloop
  endfacet
  facet normal 0.000000e+00 -0.000000e+00 1.000000e+00
    outer loop
      vertex 5.0000000000e-01 5.0000000000e-01 8.0000000000e-01
      vertex 5.0000000000e-01 5.8000000000e-01 8.0000000000e-01
      vertex 4.6938532541e-01 5.7391036260e-01 8.0000000000e-01
    endloop
  endfacet
  facet normal -1.000000e+00 0.000000e+00 0.000000e+00
    outer loop
      vertex 2.0000000000e-01 5.0000000000e-01 2.0000000000e-01
      vertex 2.0000000000e-01 4.4343145751e-01 2.5656854249e-01
      vertex 2.0000000000e-01 4.6938532541e-01 2.7391036260e-01
    endloop
  endfacet
  facet normal 0.000000e+00 0.000000e+00 1.000000e+00
    outer loop
      vertex 5.0000000000e-01 5.0000000000e-01 8.0000000000e-01
      vertex 4.6938532541e-01 5.7391036260e-01 8.0000000000e-01
      vertex 4.4343145751e-01 5.5656854249e-01 8.0000000000e-01
    endloop
  endfacet
  facet normal -1.000000e+00 0.000000e+00 0.000000e+00
    outer loop
      vertex 2.0000000000e-01 5.0000000000e-01 2.0000000000e-01
      vertex 2.0000000000e-01 4.2608963740e-01 2.3061467459e-01
      vertex 2.0000000000e-01 4.4343145751e-01 2.5656854249e-01
    endloop
  endfacet
  facet normal 0.000000e+00 0.000000e+00 1.000000e+00
    outer loop
      vertex 5.0000000000e-01 5.0000000000e-01 8.0000000000e-01
      vertex 4.4343145751e-01 5.5656854249e-01 8.0000000000e-01
      vertex 4.2608963740e-01 5.3061467459e-01 8.0000000000e-01
    endloop
  endfacet
  facet normal -1.000000e+00 0.000000e+00 0.000000e+00
    outer loop
      vertex 2.0000000000e-01 5.0000000000e-01 2.0000000000e-01
      vertex 2.0000000000e-01 4.2000000000e-01 2.0000000000e-01
      vertex 2.0000000000e-01 4.2608963740e-01 2.3061467459e-01
    endloop
  endfacet
  facet normal 0.000000e+00 0.000000e+00 1.000000e+00
    outer loop
      vertex 5.0000000000e-01 5.0000000000e-01 8.0000000000e-01
      vertex 4.2608963740e-01 5.3061467459e-01 8.0000000000e-01
      vertex 4.2000000000e-01 5.0000000000e-01 8.0000000000e-01
    endloop
  endfacet
  facet normal -1.000000e+00 -0.000000e+00 0.000000e+00
    outer loop
      vertex 2.0000000000e-01 5.0000000000e-01 2.0000000000e-01
      vertex 2.0000000000e-01 4.2608963740e-01 1.6938532541e-01
      vertex 2.0000000000e-01 4.2000000000e-01 2.0000000000e-01
    endloop
  endfacet
  facet normal 0.000000e+00 0.000000e+00 1.000000e+00
    outer loop
      vertex 5.0000000000e-01 5.0000000000e-01 8.0000000000e-01
      vertex 4.2000000000e-01 5.0000000000e-01 8.0000000000e-01
      vertex 4.2608963740e-01 4.6938532541e-01 8.0000000000e-01
    endloop
  endfacet
  facet normal -1.000000e+00 0.000000e+00 0.000000e+00
    outer loop
      vertex 2.0000000000e-01 5.0000000000e-01 2.0000000000e-01
      vertex 2.0000000000e-01 4.4343145751e-01 1.4343145751e-01
      vertex 2.0000000000e-01 4.2608963740e-01 1.6938532541e-01
    endloop
  endfacet
  facet normal 0.000000e+00 0.000000e+00 1.000000e+00
    outer loop
      vertex 5.0000000000e-01 5.0000000000e-01 8.0000000000e-01
      vertex 4.2608963740e-01 4.6938532541e-01 8.0000000000e-01
      vertex 4.4343145751e-01 4.4343145751e-01 8.0000000000e-01
    endloop
  endfacet
  facet normal -1.000000e+00 0.000000e+00 0.000000e+00
    outer loop
      vertex 2.0000000000e-01 5.0000000000e-01 2.0000000000e-01
      vertex 2.0000000000e-01 4.6938532541e-01 1.2608963740e-01
      vertex 2.0000000000e-01 4.4343145751e-01 1.4343145751e-01
    endloop
  endfacet
  facet normal 0.000000e+00 0.000000e+00 1.000000e+00
    outer loop
      vertex 5.0000000000e-01 5.0000000000e-01 8.0000000000e-01
      vertex 4.4343145751e-01 4.4343145751e-01 8.0000000000e-01
      vertex 4.6938532541e-01 4.2608963740e-01 8.0000000000e-01
    endloop
  endfacet
  facet normal -1.000000e+00 0.000000e+00 -0.000000e+00
    outer loop
      vertex 2.0000000000e-01 5.0000000000e-01 2.0000000000e-01
      vertex 2.0000000000e-01 5.0000000000e-01 1.2000000000e-01
      vertex 2.0000000000e-01 4.6938532541e-01 1.2608963740e-01
    endloop
  endfacet
  facet normal 0.000000e+00 0.000000e+00 1.000000e+00
    outer loop
      vertex 5.0000000000e-01 5.0000000000e-01 8.0000000000e-01
      vertex 4.6938532541e-01 4.2608963740e-01 8.0000000000e-01
      vertex 5.0000000000e-01 4.2000000000e-01 8.0000000000e-01
    endloop
  endfacet
endsolid elbow_tube
