solid rotcube
  facet normal 0.000000e+00 0.000000e+00 -1.000000e+00
    outer loop
      vertex 5.0000000000e-01 2.1715728753e-01 3.0000000000e-01
      vertex 2.1715728753e-01 5.0000000000e-01 3.0000000000e-01
      vertex 5.0000000000e-01 7.8284271247e-01 3.0000000000e-01
    endloop
  endfacet
  facet normal 0.000000e+00 0.000000e+00 -1.000000e+00
    outer loop
      vertex 5.0000000000e-01 2.1715728753e-01 3.0000000000e-01
      vertex 5.0000000000e-01 7.8284271247e-01 3.0000000000e-01
      vertex 7.8284271247e-01 5.0000000000e-01 3.0000000000e-01
    endloop
  endfacet
  facet normal 0.000000e+00 0.000000e+00 1.000000e+00
    outer loop
      vertex 5.0000000000e-01 2.1715728753e-01 7.0000000000e-01
      vertex 7.8284271247e-01 5.0000000000e-01 7.0000000000e-01
      vertex 5.0000000000e-01 7.8284271247e-01 7.0000000000e-01
    endloop
  endfacet
  facet normal 0.000000e+00 -0.000000e+00 1.000000e+00
    outer loop
      vertex 5.0000000000e-01 2.1715728753e-01 7.0000000000e-01
      vertex 5.0000000000e-01 7.8284271247e-01 7.0000000000e-01
      vertex 2.1715728753e-01 5.0000000000e-01 7.0000000000e-01
    endloop
  endfacet
  facet normal 7.071068e-01 -7.071068e-01 0.000000e+00
    outer loop
      vertex 5.0000000000e-01 2.1715728753e-01 3.0000000000e-01
      vertex 7.8284271247e-01 5.0000000000e-01 3.0000000000e-01
      vertex 7.8284271247e-01 5.0000000000e-01 7.0000000000e-01
    endloop
  endfacet
  facet normal 7.071068e-01 -7.071068e-01 0.000000e+00
    outer loop
      vertex 5.0000000000e-01 2.1715728753e-01 3.0000000000e-01
      vertex 7.8284271247e-01 5.0000000000e-01 7.0000000000e-01
      vertex 5.0000000000e-01 2.1715728753e-01 7.0000000000e-01
    endloop
  endfacet
  facet normal -7.071068e-01 7.071068e-01 0.000000e+00
    outer loop
      vertex 2.1715728753e-01 5.0000000000e-01 3.0000000000e-01
      vertex 2.1715728753e-01 5.0000000000e-01 7.0000000000e-01
      vertex 5.0000000000e-01 7.8284271247e-01 7.0000000000e-01
    endloop
  endfacet
  facet normal -7.071068e-01 7.071068e-01 0.000000e+00
    outer loop
      vertex 2.1715728753e-01 5.0000000000e-01 3.0000000000e-01
      vertex 5.0000000000e-01 7.8284271247e-01 7.0000000000e-01
      vertex 5.0000000000e-01 7.8284271247e-01 3.0000000000e-01
    endloop
  endfacet
  facet normal -7.071068e-01 -7.071068e-01 0.000000e+00
    outer loop
      vertex 5.0000000000e-01 2.1715728753e-01 3.0000000000e-01
      vertex 5.0000000000e-01 2.1715728753e-01 7.0000000000e-01
      vertex 2.1715728753e-01 5.0000000000e-01 7.0000000000e-01
    endloop
  endfacet
  facet normal -7.071068e-01 -7.071068e-01 0.000000e+00
    outer loop
      vertex 5.0000000000e-01 2.1715728753e-01 3.0000000000e-01
      vertex 2.1715728753e-01 5.0000000000e-01 7.0000000000e-01
      vertex 2.1715728753e-01 5.0000000000e-01 3.0000000000e-01
    endloop
  endfacet
  facet normal 7.071068e-01 7.071068e-01 0.000000e+00
    outer loop
      vertex 7.8284271247e-01 5.0000000000e-01 3.0000000000e-01
      vertex 5.0000000000e-01 7.8284271247e-01 3.0000000000e-01
      vertex 5.0000000000e-01 7.8284271247e-01 7.0000000000e-01
    endloop
  endfacet
  facet normal 7.071068e-01 7.071068e-01 -0.000000e+00
    outer loop
      vertex 7.8284271247e-01 5.0000000000e-01 3.0000000000e-01
      vertex 5.0000000000e-01 7.8284271247e-01 7.0000000000e-01
      vertex 7.8284271247e-01 5.0000000000e-01 7.0000000000e-01
    endloop
  endfacet
endsolid rotcube
