solid box_at
  facet normal 1.000000e+00 0.000000e+00 0.000000e+00
    outer loop
      vertex 5.1000000000e-01 -5.0000000000e-02 -5.0000000000e-02
      vertex 5.1000000000e-01 1.0500000000e+00 -5.0000000000e-02
      vertex 5.1000000000e-01 1.0500000000e+00 1.0500000000e+00
    endloop
  endfacet
  facet normal 1.000000e+00 0.000000e+00 0.000000e+00
    outer loop
      vertex 5.1000000000e-01 -5.0000000000e-02 -5.0000000000e-02
      vertex 5.1000000000e-01 1.0500000000e+00 1.0500000000e+00
      vertex 5.1000000000e-01 -5.0000000000e-02 1.0500000000e+00
    endloop
  endfacet
  facet normal -1.000000e+00 0.000000e+00 0.000000e+00
    outer loop
      vertex 5.5000000000e-01 -5.0000000000e-02 -5.0000000000e-02
      vertex 5.5000000000e-01 -5.0000000000e-02 1.0500000000e+00
      vertex 5.5000000000e-01 1.0500000000e+00 1.0500000000e+00
    endloop
  endfacet
  facet normal -1.000000e+00 0.000000e+00 0.000000e+00
    outer loop
      vertex 5.5000000000e-01 -5.0000000000e-02 -5.0000000000e-02
      vertex 5.5000000000e-01 1.0500000000e+00 1.0500000000e+00
      vertex 5.5000000000e-01 1.0500000000e+00 -5.0000000000e-02
    endloop
  endfacet
  facet normal 0.000000e+00 1.000000e+00 0.000000e+00
    outer loop
      vertex 5.1000000000e-01 -5.0000000000e-02 -5.0000000000e-02
      vertex 5.1000000000e-01 -5.0000000000e-02 1.0500000000e+00
      vertex 5.5000000000e-01 -5.0000000000e-02 1.0500000000e+00
    endloop
  endfacet
  facet normal 0.000000e+00 1.000000e+00 0.000000e+00
    outer loop
      vertex 5.1000000000e-01 -5.0000000000e-02 -5.0000000000e-02
      vertex 5.5000000000e-01 -5.0000000000e-02 1.0500000000e+00
      vertex 5.5000000000e-01 -5.0000000000e-02 -5.0000000000e-02
    endloop
  endfacet
  facet normal 0.000000e+00 -1.000000e+00 0.000000e+00
    outer loop
      vertex 5.1000000000e-01 1.0500000000e+00 -5.0000000000e-02
      vertex 5.5000000000e-01 1.0500000000e+00 -5.0000000000e-02
      vertex 5.5000000000e-01 1.0500000000e+00 1.0500000000e+00
    endloop
  endfacet
  facet normal 0.000000e+00 -1.000000e+00 0.000000e+00
    outer loop
      vertex 5.1000000000e-01 1.0500000000e+00 -5.0000000000e-02
      vertex 5.5000000000e-01 1.0500000000e+00 1.0500000000e+00
      vertex 5.1000000000e-01 1.0500000000e+00 1.0500000000e+00
    endloop
  endfacet
  facet normal 0.000000e+00 0.000000e+00 1.000000e+00
    outer loop
      vertex 5.1000000000e-01 -5.0000000000e-02 -5.0000000000e-02
      vertex 5.5000000000e-01 -5.0000000000e-02 -5.0000000000e-02
      vertex 5.5000000000e-01 1.0500000000e+00 -5.0000000000e-02
    endloop
  endfacet
  facet normal 0.000000e+00 0.000000e+00 1.000000e+00
    outer loop
      vertex 5.1000000000e-01 -5.0000000000e-02 -5.0000000000e-02
      vertex 5.5000000000e-01 1.0500000000e+00 -5.0000000000e-02
      vertex 5.1000000000e-01 1.0500000000e+00 -5.0000000000e-02
    endloop
  endfacet
  facet normal 0.000000e+00 0.000000e+00 -1.000000e+00
    outer loop
      vertex 5.1000000000e-01 -5.0000000000e-02 1.0500000000e+00
      vertex 5.1000000000e-01 1.0500000000e+00 1.0500000000e+00
      vertex 5.5000000000e-01 1.0500000000e+00 1.0500000000e+00
    endloop
  endfacet
  facet normal 0.000000e+00 0.000000e+00 -1.000000e+00
    outer loop
      vertex 5.1000000000e-01 -5.0000000000e-02 1.0500000000e+00
      vertex 5.5000000000e-01 1.0500000000e+00 1.0500000000e+00
      vertex 5.5000000000e-01 -5.0000000000e-02 1.0500000000e+00
    endloop
  endfacet
endsolid box_at
