solid capped_cylinder
  facet normal 9.914449e-01 1.305262e-01 0.000000e+00
    outer loop
      vertex 7.0000000000e-01 5.0000000000e-01 -1.0000000000e-01
      vertex 6.9318516526e-01 5.5176380902e-01 -1.0000000000e-01
      vertex 6.9318516526e-01 5.5176380902e-01 1.1000000000e+00
    endloop
  endfacet
  facet normal 9.914449e-01 1.305262e-01 -0.000000e+00
    outer loop
      vertex 7.0000000000e-01 5.0000000000e-01 -1.0000000000e-01
      vertex 6.9318516526e-01 5.5176380902e-01 1.1000000000e+00
      vertex 7.0000000000e-01 5.0000000000e-01 1.1000000000e+00
    endloop
  endfacet
  facet normal 9.238795e-01 3.826834e-01 0.000000e+00
    outer loop
      vertex 6.9318516526e-01 5.5176380902e-01 -1.0000000000e-01
      vertex 6.7320508076e-01 6.0000000000e-01 -1.0000000000e-01
      vertex 6.7320508076e-01 6.0000000000e-01 1.1000000000e+00
    endloop
  endfacet
  facet normal 9.238795e-01 3.826834e-01 -0.000000e+00
    outer loop
      vertex 6.9318516526e-01 5.5176380902e-01 -1.0000000000e-01
      vertex 6.7320508076e-01 6.0000000000e-01 1.1000000000e+00
      vertex 6.9318516526e-01 5.5176380902e-01 1.1000000000e+00
    endloop
  endfacet
  facet normal 7.933533e-01 6.087614e-01 0.000000e+00
    outer loop
      vertex 6.7320508076e-01 6.0000000000e-01 -1.0000000000e-01
      vertex 6.4142135624e-01 6.4142135624e-01 -1.0000000000e-01
      vertex 6.4142135624e-01 6.4142135624e-01 1.1000000000e+00
    endloop
  endfacet
  facet normal 7.933533e-01 6.087614e-01 -0.000000e+00
    outer loop
      vertex 6.7320508076e-01 6.0000000000e-01 -1.0000000000e-01
      vertex 6.4142135624e-01 6.4142135624e-01 1.1000000000e+00
      vertex 6.7320508076e-01 6.0000000000e-01 1.1000000000e+00
    endloop
  endfacet
  facet normal 6.087614e-01 7.933533e-01 0.000000e+00
    outer loop
      vertex 6.4142135624e-01 6.4142135624e-01 -1.0000000000e-01
      vertex 6.0000000000e-01 6.7320508076e-01 -1.0000000000e-01
      vertex 6.0000000000e-01 6.7320508076e-01 1.1000000000e+00
    endloop
  endfacet
  facet normal 6.087614e-01 7.933533e-01 -0.000000e+00
    outer loop
      vertex 6.4142135624e-01 6.4142135624e-01 -1.0000000000e-01
      vertex 6.0000000000e-01 6.7320508076e-01 1.1000000000e+00
      vertex 6.4142135624e-01 6.4142135624e-01 1.1000000000e+00
    endloop
  endfacet
  facet normal 3.826834e-01 9.238795e-01 0.000000e+00
    outer loop
      vertex 6.0000000000e-01 6.7320508076e-01 -1.0000000000e-01
      vertex 5.5176380902e-01 6.9318516526e-01 -1.0000000000e-01
      vertex 5.5176380902e-01 6.9318516526e-01 1.1000000000e+00
    endloop
  endfacet
  facet normal 3.826834e-01 9.238795e-01 -0.000000e+00
    outer loop
      vertex 6.0000000000e-01 6.7320508076e-01 -1.0000000000e-01
      vertex 5.5176380902e-01 6.9318516526e-01 1.1000000000e+00
      vertex 6.0000000000e-01 6.7320508076e-01 1.1000000000e+00
    endloop
  endfacet
  facet normal 1.305262e-01 9.914449e-01 0.000000e+00
    outer loop
      vertex 5.5176380902e-01 6.9318516526e-01 -1.0000000000e-01
      vertex 5.0000000000e-01 7.0000000000e-01 -1.0000000000e-01
      vertex 5.0000000000e-01 7.0000000000e-01 1.1000000000e+00
    endloop
  endfacet
  facet normal 1.305262e-01 9.914449e-01 -0.000000e+00
    outer loop
      vertex 5.5176380902e-01 6.9318516526e-01 -1.0000000000e-01
      vertex 5.0000000000e-01 7.0000000000e-01 1.1000000000e+00
      vertex 5.5176380902e-01 6.9318516526e-01 1.1000000000e+00
    endloop
  endfacet
  facet normal -1.305262e-01 9.914449e-01 0.000000e+00
    outer loop
      vertex 5.0000000000e-01 7.0000000000e-01 -1.0000000000e-01
      vertex 4.4823619098e-01 6.9318516526e-01 -1.0000000000e-01
      vertex 4.4823619098e-01 6.9318516526e-01 1.1000000000e+00
    endloop
  endfacet
  facet normal -1.305262e-01 9.914449e-01 0.000000e+00
    outer loop
      vertex 5.0000000000e-01 7.0000000000e-01 -1.0000000000e-01
      vertex 4.4823619098e-01 6.9318516526e-01 1.1000000000e+00
      vertex 5.0000000000e-01 7.0000000000e-01 1.1000000000e+00
    endloop
  endfacet
  facet normal -3.826834e-01 9.238795e-01 0.000000e+00
    outer loop
      vertex 4.4823619098e-01 6.9318516526e-01 -1.0000000000e-01
      vertex 4.0000000000e-01 6.7320508076e-01 -1.0000000000e-01
      vertex 4.0000000000e-01 6.7320508076e-01 1.1000000000e+00
    endloop
  endfacet
  facet normal -3.826834e-01 9.238795e-01 0.000000e+00
    outer loop
      vertex 4.4823619098e-01 6.9318516526e-01 -1.0000000000e-01
      vertex 4.0000000000e-01 6.7320508076e-01 1.1000000000e+00
      vertex 4.4823619098e-01 6.9318516526e-01 1.1000000000e+00
    endloop
  endfacet
  facet normal -6.087614e-01 7.933533e-01 0.000000e+00
    outer loop
      vertex 4.0000000000e-01 6.7320508076e-01 -1.0000000000e-01
      vertex 3.5857864376e-01 6.4142135624e-01 -1.0000000000e-01
      vertex 3.5857864376e-01 6.4142135624e-01 1.1000000000e+00
    endloop
  endfacet
  facet normal -6.087614e-01 7.933533e-01 0.000000e+00
    outer loop
      vertex 4.0000000000e-01 6.7320508076e-01 -1.0000000000e-01
      vertex 3.5857864376e-01 6.4142135624e-01 1.1000000000e+00
      vertex 4.0000000000e-01 6.7320508076e-01 1.1000000000e+00
    endloop
  endfacet
  facet normal -7.933533e-01 6.087614e-01 0.000000e+00
    outer loop
      vertex 3.5857864376e-01 6.4142135624e-01 -1.0000000000e-01
      vertex 3.2679491924e-01 6.0000000000e-01 -1.0000000000e-01
      vertex 3.2679491924e-01 6.0000000000e-01 1.1000000000e+00
    endloop
  endfacet
  facet normal -7.933533e-01 6.087614e-01 0.000000e+00
    outer loop
      vertex 3.5857864376e-01 6.4142135624e-01 -1.0000000000e-01
      vertex 3.2679491924e-01 6.0000000000e-01 1.1000000000e+00
      vertex 3.5857864376e-01 6.4142135624e-01 1.1000000000e+00
    endloop
  endfacet
  facet normal -9.238795e-01 3.826834e-01 0.000000e+00
    outer loop
      vertex 3.2679491924e-01 6.0000000000e-01 -1.0000000000e-01
      vertex 3.0681483474e-01 5.5176380902e-01 -1.0000000000e-01
      vertex 3.0681483474e-01 5.5176380902e-01 1.1000000000e+00
    endloop
  endfacet
  facet normal -9.238795e-01 3.826834e-01 0.000000e+00
    outer loop
      vertex 3.2679491924e-01 6.0000000000e-01 -1.0000000000e-01
      vertex 3.0681483474e-01 5.5176380902e-01 1.1000000000e+00
      vertex 3.2679491924e-01 6.0000000000e-01 1.1000000000e+00
    endloop
  endfacet
  facet normal -9.914449e-01 1.305262e-01 0.000000e+00
    outer loop
      vertex 3.0681483474e-01 5.5176380902e-01 -1.0000000000e-01
      vertex 3.0000000000e-01 5.0000000000e-01 -1.0000000000e-01
      vertex 3.0000000000e-01 5.0000000000e-01 1.1000000000e+00
    endloop
  endfacet
  facet normal -9.914449e-01 1.305262e-01 0.000000e+00
    outer loop
      vertex 3.0681483474e-01 5.5176380902e-01 -1.0000000000e-01
      vertex 3.0000000000e-01 5.0000000000e-01 1.1000000000e+00
      vertex 3.0681483474e-01 5.5176380902e-01 1.1000000000e+00
    endloop
  endfacet
  facet normal -9.914449e-01 -1.305262e-01 0.000000e+00
    outer loop
      vertex 3.0000000000e-01 5.0000000000e-01 -1.0000000000e-01
      vertex 3.0681483474e-01 4.4823619098e-01 -1.0000000000e-01
      vertex 3.0681483474e-01 4.4823619098e-01 1.1000000000e+00
    endloop
  endfacet
  facet normal -9.914449e-01 -1.305262e-01 0.000000e+00
    outer loop
      vertex 3.0000000000e-01 5.0000000000e-01 -1.0000000000e-01
      vertex 3.0681483474e-01 4.4823619098e-01 1.1000000000e+00
      vertex 3.0000000000e-01 5.0000000000e-01 1.1000000000e+00
    endloop
  endfacet
  facet normal -9.238795e-01 -3.826834e-01 0.000000e+00
    outer loop
      vertex 3.0681483474e-01 4.4823619098e-01 -1.0000000000e-01
      vertex 3.2679491924e-01 4.0000000000e-01 -1.0000000000e-01
      vertex 3.2679491924e-01 4.0000000000e-01 1.1000000000e+00
    endloop
  endfacet
  facet normal -9.238795e-01 -3.826834e-01 0.000000e+00
    outer loop
      vertex 3.0681483474e-01 4.4823619098e-01 -1.0000000000e-01
      vertex 3.2679491924e-01 4.0000000000e-01 1.1000000000e+00
      vertex 3.0681483474e-01 4.4823619098e-01 1.1000000000e+00
    endloop
  endfacet
  facet normal -7.933533e-01 -6.087614e-01 0.000000e+00
    outer loop
      vertex 3.2679491924e-01 4.0000000000e-01 -1.0000000000e-01
      vertex 3.5857864376e-01 3.5857864376e-01 -1.0000000000e-01
      vertex 3.5857864376e-01 3.5857864376e-01 1.1000000000e+00
    endloop
  endfacet
  facet normal -7.933533e-01 -6.087614e-01 0.000000e+00
    outer loop
      vertex 3.2679491924e-01 4.0000000000e-01 -1.0000000000e-01
      vertex 3.5857864376e-01 3.5857864376e-01 1.1000000000e+00
      vertex 3.2679491924e-01 4.0000000000e-01 1.1000000000e+00
    endloop
  endfacet
  facet normal -6.087614e-01 -7.933533e-01 0.000000e+00
    outer loop
      vertex 3.5857864376e-01 3.5857864376e-01 -1.0000000000e-01
      vertex 4.0000000000e-01 3.2679491924e-01 -1.0000000000e-01
      vertex 4.0000000000e-01 3.2679491924e-01 1.1000000000e+00
    endloop
  endfacet
  facet normal -6.087614e-01 -7.933533e-01 0.000000e+00
    outer loop
      vertex 3.5857864376e-01 3.5857864376e-01 -1.0000000000e-01
      vertex 4.0000000000e-01 3.2679491924e-01 1.1000000000e+00
      vertex 3.5857864376e-01 3.5857864376e-01 1.1000000000e+00
    endloop
  endfacet
  facet normal -3.826834e-01 -9.238795e-01 0.000000e+00
    outer loop
      vertex 4.0000000000e-01 3.2679491924e-01 -1.0000000000e-01
      vertex 4.4823619098e-01 3.0681483474e-01 -1.0000000000e-01
      vertex 4.4823619098e-01 3.0681483474e-01 1.1000000000e+00
    endloop
  endfacet
  facet normal -3.826834e-01 -9.238795e-01 0.000000e+00
    outer loop
      vertex 4.0000000000e-01 3.2679491924e-01 -1.0000000000e-01
      vertex 4.4823619098e-01 3.0681483474e-01 1.1000000000e+00
      vertex 4.0000000000e-01 3.2679491924e-01 1.1000000000e+00
    endloop
  endfacet
  facet normal -1.305262e-01 -9.914449e-01 0.000000e+00
    outer loop
      vertex 4.4823619098e-01 3.0681483474e-01 -1.0000000000e-01
      vertex 5.0000000000e-01 3.0000000000e-01 -1.0000000000e-01
      vertex 5.0000000000e-01 3.0000000000e-01 1.1000000000e+00
    endloop
  endfacet
  facet normal -1.305262e-01 -9.914449e-01 0.000000e+00
    outer loop
      vertex 4.4823619098e-01 3.0681483474e-01 -1.0000000000e-01
      vertex 5.0000000000e-01 3.0000000000e-01 1.1000000000e+00
      vertex 4.4823619098e-01 3.0681483474e-01 1.1000000000e+00
    endloop
  endfacet
  facet normal 1.305262e-01 -9.914449e-01 0.000000e+00
    outer loop
      vertex 5.0000000000e-01 3.0000000000e-01 -1.0000000000e-01
      vertex 5.5176380902e-01 3.0681483474e-01 -1.0000000000e-01
      vertex 5.5176380902e-01 3.0681483474e-01 1.1000000000e+00
    endloop
  endfacet
  facet normal 1.305262e-01 -9.914449e-01 0.000000e+00
    outer loop
      vertex 5.0000000000e-01 3.0000000000e-01 -1.0000000000e-01
      vertex 5.5176380902e-01 3.0681483474e-01 1.1000000000e+00
      vertex 5.0000000000e-01 3.0000000000e-01 1.1000000000e+00
    endloop
  endfacet
  facet normal 3.826834e-01 -9.238795e-01 0.000000e+00
    outer loop
      vertex 5.5176380902e-01 3.0681483474e-01 -1.0000000000e-01
      vertex 6.0000000000e-01 3.2679491924e-01 -1.0000000000e-01
      vertex 6.0000000000e-01 3.2679491924e-01 1.1000000000e+00
    endloop
  endfacet
  facet normal 3.826834e-01 -9.238795e-01 0.000000e+00
    outer loop
      vertex 5.5176380902e-01 3.0681483474e-01 -1.0000000000e-01
      vertex 6.0000000000e-01 3.2679491924e-01 1.1000000000e+00
      vertex 5.5176380902e-01 3.0681483474e-01 1.1000000000e+00
    endloop
  endfacet
  facet normal 6.087614e-01 -7.933533e-01 0.000000e+00
    outer loop
      vertex 6.0000000000e-01 3.2679491924e-01 -1.0000000000e-01
      vertex 6.4142135624e-01 3.5857864376e-01 -1.0000000000e-01
      vertex 6.4142135624e-01 3.5857864376e-01 1.1000000000e+00
    endloop
  endfacet
  facet normal 6.087614e-01 -7.933533e-01 0.000000e+00
    outer loop
      vertex 6.0000000000e-01 3.2679491924e-01 -1.0000000000e-01
      vertex 6.4142135624e-01 3.5857864376e-01 1.1000000000e+00
      vertex 6.0000000000e-01 3.2679491924e-01 1.1000000000e+00
    endloop
  endfacet
  facet normal 7.933533e-01 -6.087614e-01 0.000000e+00
    outer loop
      vertex 6.4142135624e-01 3.5857864376e-01 -1.0000000000e-01
      vertex 6.7320508076e-01 4.0000000000e-01 -1.0000000000e-01
      vertex 6.7320508076e-01 4.0000000000e-01 1.1000000000e+00
    endloop
  endfacet
  facet normal 7.933533e-01 -6.087614e-01 0.000000e+00
    outer loop
      vertex 6.4142135624e-01 3.5857864376e-01 -1.0000000000e-01
      vertex 6.7320508076e-01 4.0000000000e-01 1.1000000000e+00
      vertex 6.4142135624e-01 3.5857864376e-01 1.1000000000e+00
    endloop
  endfacet
  facet normal 9.238795e-01 -3.826834e-01 0.000000e+00
    outer loop
      vertex 6.7320508076e-01 4.0000000000e-01 -1.0000000000e-01
      vertex 6.9318516526e-01 4.4823619098e-01 -1.0000000000e-01
      vertex 6.9318516526e-01 4.4823619098e-01 1.1000000000e+00
    endloop
  endfacet
  facet normal 9.238795e-01 -3.826834e-01 0.000000e+00
    outer loop
      vertex 6.7320508076e-01 4.0000000000e-01 -1.0000000000e-01
      vertex 6.9318516526e-01 4.4823619098e-01 1.1000000000e+00
      vertex 6.7320508076e-01 4.0000000000e-01 1.1000000000e+00
    endloop
  endfacet
  facet normal 9.914449e-01 -1.305262e-01 0.000000e+00
    outer loop
      vertex 6.9318516526e-01 4.4823619098e-01 -1.0000000000e-01
      vertex 7.0000000000e-01 5.0000000000e-01 -1.0000000000e-01
      vertex 7.0000000000e-01 5.0000000000e-01 1.1000000000e+00
    endloop
  endfacet
  facet normal 9.914449e-01 -1.305262e-01 0.000000e+00
    outer loop
      vertex 6.9318516526e-01 4.4823619098e-01 -1.0000000000e-01
      vertex 7.0000000000e-01 5.0000000000e-01 1.1000000000e+00
      vertex 6.9318516526e-01 4.4823619098e-01 1.1000000000e+00
    endloop
  endfacet
  facet normal 0.000000e+00 0.000000e+00 -1.000000e+00
    outer loop
      vertex 5.0000000000e-01 5.0000000000e-01 -1.0000000000e-01
      vertex 6.9318516526e-01 5.5176380902e-01 -1.0000000000e-01
      vertex 7.0000000000e-01 5.0000000000e-01 -1.0000000000e-01
    endloop
  endfacet
  facet normal 0.000000e+00 0.000000e+00 1.000000e+00
    outer loop
      vertex 5.0000000000e-01 5.0000000000e-01 1.1000000000e+00
      vertex 7.0000000000e-01 5.0000000000e-01 1.1000000000e+00
      vertex 6.9318516526e-01 5.5176380902e-01 1.1000000000e+00
    endloop
  endfacet
  facet normal 0.000000e+00 0.000000e+00 -1.000000e+00
    outer loop
      vertex 5.0000000000e-01 5.0000000000e-01 -1.0000000000e-01
      vertex 6.7320508076e-01 6.0000000000e-01 -1.0000000000e-01
      vertex 6.9318516526e-01 5.5176380902e-01 -1.0000000000e-01
    endloop
  endfacet
  facet normal 0.000000e+00 0.000000e+00 1.000000e+00
    outer loop
      vertex 5.0000000000e-01 5.0000000000e-01 1.1000000000e+00
      vertex 6.9318516526e-01 5.5176380902e-01 1.1000000000e+00
      vertex 6.7320508076e-01 6.0000000000e-01 1.1000000000e+00
    endloop
  endfacet
  facet normal 0.000000e+00 0.000000e+00 -1.000000e+00
    outer loop
      vertex 5.0000000000e-01 5.0000000000e-01 -1.0000000000e-01
      vertex 6.4142135624e-01 6.4142135624e-01 -1.0000000000e-01
      vertex 6.7320508076e-01 6.0000000000e-01 -1.0000000000e-01
    endloop
  endfacet
  facet normal 0.000000e+00 0.000000e+00 1.000000e+00
    outer loop
      vertex 5.0000000000e-01 5.0000000000e-01 1.1000000000e+00
      vertex 6.7320508076e-01 6.0000000000e-01 1.1000000000e+00
      vertex 6.4142135624e-01 6.4142135624e-01 1.1000000000e+00
    endloop
  endfacet
  facet normal 0.000000e+00 0.000000e+00 -1.000000e+00
    outer loop
      vertex 5.0000000000e-01 5.0000000000e-01 -1.0000000000e-01
      vertex 6.0000000000e-01 6.7320508076e-01 -1.0000000000e-01
      vertex 6.4142135624e-01 6.4142135624e-01 -1.0000000000e-01
    endloop
  endfacet
  facet normal 0.000000e+00 0.000000e+00 1.000000e+00
    outer loop
      vertex 5.0000000000e-01 5.0000000000e-01 1.1000000000e+00
      vertex 6.4142135624e-01 6.4142135624e-01 1.1000000000e+00
      vertex 6.0000000000e-01 6.7320508076e-01 1.1000000000e+00
    endloop
  endfacet
  facet normal 0.000000e+00 0.000000e+00 -1.000000e+00
    outer loop
      vertex 5.0000000000e-01 5.0000000000e-01 -1.0000000000e-01
      vertex 5.5176380902e-01 6.9318516526e-01 -1.0000000000e-01
      vertex 6.0000000000e-01 6.7320508076e-01 -1.0000000000e-01
    endloop
  endfacet
  facet normal 0.000000e+00 0.000000e+00 1.000000e+00
    outer loop
      vertex 5.0000000000e-01 5.0000000000e-01 1.1000000000e+00
      vertex 6.0000000000e-01 6.7320508076e-01 1.1000000000e+00
      vertex 5.5176380902e-01 6.9318516526e-01 1.1000000000e+00
    endloop
  endfacet
  facet normal 0.000000e+00 0.000000e+00 -1.000000e+00
    outer loop
      vertex 5.0000000000e-01 5.0000000000e-01 -1.0000000000e-01
      vertex 5.0000000000e-01 7.0000000000e-01 -1.0000000000e-01
      vertex 5.5176380902e-01 6.9318516526e-01 -1.0000000000e-01
    endloop
  endfacet
  facet normal 0.000000e+00 0.000000e+00 1.000000e+00
    outer loop
      vertex 5.0000000000e-01 5.0000000000e-01 1.1000000000e+00
      vertex 5.5176380902e-01 6.9318516526e-01 1.1000000000e+00
      vertex 5.0000000000e-01 7.0000000000e-01 1.1000000000e+00
    endloop
  endfacet
  facet normal 0.000000e+00 0.000000e+00 -1.000000e+00
    outer loop
      vertex 5.0000000000e-01 5.0000000000e-01 -1.0000000000e-01
      vertex 4.4823619098e-01 6.9318516526e-01 -1.0000000000e-01
      vertex 5.0000000000e-01 7.0000000000e-01 -1.0000000000e-01
    endloop
  endfacet
  facet normal 0.000000e+00 -0.000000e+00 1.000000e+00
    outer loop
      vertex 5.0000000000e-01 5.0000000000e-01 1.1000000000e+00
      vertex 5.0000000000e-01 7.0000000000e-01 1.1000000000e+00
      vertex 4.4823619098e-01 6.9318516526e-01 1.1000000000e+00
    endloop
  endfacet
  facet normal 0.000000e+00 0.000000e+00 -1.000000e+00
    outer loop
      vertex 5.0000000000e-01 5.0000000000e-01 -1.0000000000e-01
      vertex 4.0000000000e-01 6.7320508076e-01 -1.0000000000e-01
      vertex 4.4823619098e-01 6.9318516526e-01 -1.0000000000e-01
    endloop
  endfacet
  facet normal 0.000000e+00 0.000000e+00 1.000000e+00
    outer loop
      vertex 5.0000000000e-01 5.0000000000e-01 1.1000000000e+00
      vertex 4.4823619098e-01 6.9318516526e-01 1.1000000000e+00
      vertex 4.0000000000e-01 6.7320508076e-01 1.1000000000e+00
    endloop
  endfacet
  facet normal 0.000000e+00 0.000000e+00 -1.000000e+00
    outer loop
      vertex 5.0000000000e-01 5.0000000000e-01 -1.0000000000e-01
      vertex 3.5857864376e-01 6.4142135624e-01 -1.0000000000e-01
      vertex 4.0000000000e-01 6.7320508076e-01 -1.0000000000e-01
    endloop
  endfacet
  facet normal 0.000000e+00 0.000000e+00 1.000000e+00
    outer loop
      vertex 5.0000000000e-01 5.0000000000e-01 1.1000000000e+00
      vertex 4.0000000000e-01 6.7320508076e-01 1.1000000000e+00
      vertex 3.5857864376e-01 6.4142135624e-01 1.1000000000e+00
    endloop
  endfacet
  facet normal 0.000000e+00 0.000000e+00 -1.000000e+00
    outer loop
      vertex 5.0000000000e-01 5.0000000000e-01 -1.0000000000e-01
      vertex 3.2679491924e-01 6.0000000000e-01 -1.0000000000e-01
      vertex 3.5857864376e-01 6.4142135624e-01 -1.0000000000e-01
    endloop
  endfacet
  facet normal 0.000000e+00 0.000000e+00 1.000000e+00
    outer loop
      vertex 5.0000000000e-01 5.0000000000e-01 1.1000000000e+00
      vertex 3.5857864376e-01 6.4142135624e-01 1.1000000000e+00
      vertex 3.2679491924e-01 6.0000000000e-01 1.1000000000e+00
    endloop
  endfacet
  facet normal 0.000000e+00 0.000000e+00 -1.000000e+00
    outer loop
      vertex 5.0000000000e-01 5.0000000000e-01 -1.0000000000e-01
      vertex 3.0681483474e-01 5.5176380902e-01 -1.0000000000e-01
      vertex 3.2679491924e-01 6.0000000000e-01 -1.0000000000e-01
    endloop
  endfacet
  facet normal 0.000000e+00 0.000000e+00 1.000000e+00
    outer loop
      vertex 5.0000000000e-01 5.0000000000e-01 1.1000000000e+00
      vertex 3.2679491924e-01 6.0000000000e-01 1.1000000000e+00
      vertex 3.0681483474e-01 5.5176380902e-01 1.1000000000e+00
    endloop
  endfacet
  facet normal 0.000000e+00 0.000000e+00 -1.000000e+00
    outer loop
      vertex 5.0000000000e-01 5.0000000000e-01 -1.0000000000e-01
      vertex 3.0000000000e-01 5.0000000000e-01 -1.0000000000e-01
      vertex 3.0681483474e-01 5.5176380902e-01 -1.0000000000e-01
    endloop
  endfacet
  facet normal 0.000000e+00 0.000000e+00 1.000000e+00
    outer loop
      vertex 5.0000000000e-01 5.0000000000e-01 1.1000000000e+00
      vertex 3.0681483474e-01 5.5176380902e-01 1.1000000000e+00
      vertex 3.0000000000e-01 5.0000000000e-01 1.1000000000e+00
    endloop
  endfacet
  facet normal -0.000000e+00 0.000000e+00 -1.000000e+00
    outer loop
      vertex 5.0000000000e-01 5.0000000000e-01 -1.0000000000e-01
      vertex 3.0681483474e-01 4.4823619098e-01 -1.0000000000e-01
      vertex 3.0000000000e-01 5.0000000000e-01 -1.0000000000e-01
    endloop
  endfacet
  facet normal 0.000000e+00 0.000000e+00 1.000000e+00
    outer loop
      vertex 5.0000000000e-01 5.0000000000e-01 1.1000000000e+00
      vertex 3.0000000000e-01 5.0000000000e-01 1.1000000000e+00
      vertex 3.0681483474e-01 4.4823619098e-01 1.1000000000e+00
    endloop
  endfacet
  facet normal 0.000000e+00 0.000000e+00 -1.000000e+00
    outer loop
      vertex 5.0000000000e-01 5.0000000000e-01 -1.0000000000e-01
      vertex 3.2679491924e-01 4.0000000000e-01 -1.0000000000e-01
      vertex 3.0681483474e-01 4.4823619098e-01 -1.0000000000e-01
    endloop
  endfacet
  facet normal 0.000000e+00 0.000000e+00 1.000000e+00
    outer loop
      vertex 5.0000000000e-01 5.0000000000e-01 1.1000000000e+00
      vertex 3.0681483474e-01 4.4823619098e-01 1.1000000000e+00
      vertex 3.2679491924e-01 4.0000000000e-01 1.1000000000e+00
    endloop
  endfacet
  facet normal 0.000000e+00 0.000000e+00 -1.000000e+00
    outer loop
      vertex 5.0000000000e-01 5.0000000000e-01 -1.0000000000e-01
      vertex 3.5857864376e-01 3.5857864376e-01 -1.0000000000e-01
      vertex 3.2679491924e-01 4.0000000000e-01 -1.0000000000e-01
    endloop
  endfacet
  facet normal 0.000000e+00 0.000000e+00 1.000000e+00
    outer loop
      vertex 5.0000000000e-01 5.0000000000e-01 1.1000000000e+00
      vertex 3.2679491924e-01 4.0000000000e-01 1.1000000000e+00
      vertex 3.5857864376e-01 3.5857864376e-01 1.1000000000e+00
    endloop
  endfacet
  facet normal 0.000000e+00 0.000000e+00 -1.000000e+00
    outer loop
      vertex 5.0000000000e-01 5.0000000000e-01 -1.0000000000e-01
      vertex 4.0000000000e-01 3.2679491924e-01 -1.0000000000e-01
      vertex 3.5857864376e-01 3.5857864376e-01 -1.0000000000e-01
    endloop
  endfacet
  facet normal 0.000000e+00 0.000000e+00 1.000000e+00
    outer loop
      vertex 5.0000000000e-01 5.0000000000e-01 1.1000000000e+00
      vertex 3.5857864376e-01 3.5857864376e-01 1.1000000000e+00
      vertex 4.0000000000e-01 3.2679491924e-01 1.1000000000e+00
    endloop
  endfacet
  facet normal 0.000000e+00 0.000000e+00 -1.000000e+00
    outer loop
      vertex 5.0000000000e-01 5.0000000000e-01 -1.0000000000e-01
      vertex 4.4823619098e-01 3.0681483474e-01 -1.0000000000e-01
      vertex 4.0000000000e-01 3.2679491924e-01 -1.0000000000e-01
    endloop
  endfacet
  facet normal 0.000000e+00 0.000000e+00 1.000000e+00
    outer loop
      vertex 5.0000000000e-01 5.0000000000e-01 1.1000000000e+00
      vertex 4.0000000000e-01 3.2679491924e-01 1.1000000000e+00
      vertex 4.4823619098e-01 3.0681483474e-01 1.1000000000e+00
    endloop
  endfacet
  facet normal 0.000000e+00 0.000000e+00 -1.000000e+00
    outer loop
      vertex 5.0000000000e-01 5.0000000000e-01 -1.0000000000e-01
      vertex 5.0000000000e-01 3.0000000000e-01 -1.0000000000e-01
      vertex 4.4823619098e-01 3.0681483474e-01 -1.0000000000e-01
    endloop
  endfacet
  facet normal 0.000000e+00 0.000000e+00 1.000000e+00
    outer loop
      vertex 5.0000000000e-01 5.0000000000e-01 1.1000000000e+00
      vertex 4.4823619098e-01 3.0681483474e-01 1.1000000000e+00
      vertex 5.0000000000e-01 3.0000000000e-01 1.1000000000e+00
    endloop
  endfacet
  facet normal 0.000000e+00 -0.000000e+00 -1.000000e+00
    outer loop
      vertex 5.0000000000e-01 5.0000000000e-01 -1.0000000000e-01
      vertex 5.5176380902e-01 3.0681483474e-01 -1.0000000000e-01
      vertex 5.0000000000e-01 3.0000000000e-01 -1.0000000000e-01
    endloop
  endfacet
  facet normal 0.000000e+00 0.000000e+00 1.000000e+00
    outer loop
      vertex 5.0000000000e-01 5.0000000000e-01 1.1000000000e+00
      vertex 5.0000000000e-01 3.0000000000e-01 1.1000000000e+00
      vertex 5.5176380902e-01 3.0681483474e-01 1.1000000000e+00
    endloop
  endfacet
  facet normal 0.000000e+00 0.000000e+00 -1.000000e+00
    outer loop
      vertex 5.0000000000e-01 5.0000000000e-01 -1.0000000000e-01
      vertex 6.0000000000e-01 3.2679491924e-01 -1.0000000000e-01
      vertex 5.5176380902e-01 3.0681483474e-01 -1.0000000000e-01
    endloop
  endfacet
  facet normal 0.000000e+00 0.000000e+00 1.000000e+00
    outer loop
      vertex 5.0000000000e-01 5.0000000000e-01 1.1000000000e+00
      vertex 5.5176380902e-01 3.0681483474e-01 1.1000000000e+00
      vertex 6.0000000000e-01 3.2679491924e-01 1.1000000000e+00
    endloop
  endfacet
  facet normal 0.000000e+00 0.000000e+00 -1.000000e+00
    outer loop
      vertex 5.0000000000e-01 5.0000000000e-01 -1.0000000000e-01
      vertex 6.4142135624e-01 3.5857864376e-01 -1.0000000000e-01
      vertex 6.0000000000e-01 3.2679491924e-01 -1.0000000000e-01
    endloop
  endfacet
  facet normal 0.000000e+00 0.000000e+00 1.000000e+00
    outer loop
      vertex 5.0000000000e-01 5.0000000000e-01 1.1000000000e+00
      vertex 6.0000000000e-01 3.2679491924e-01 1.1000000000e+00
      vertex 6.4142135624e-01 3.5857864376e-01 1.1000000000e+00
    endloop
  endfacet
  facet normal 0.000000e+00 0.000000e+00 -1.000000e+00
    outer loop
      vertex 5.0000000000e-01 5.0000000000e-01 -1.0000000000e-01
      vertex 6.7320508076e-01 4.0000000000e-01 -1.0000000000e-01
      vertex 6.4142135624e-01 3.5857864376e-01 -1.0000000000e-01
    endloop
  endfacet
  facet normal 0.000000e+00 0.000000e+00 1.000000e+00
    outer loop
      vertex 5.0000000000e-01 5.0000000000e-01 1.1000000000e+00
      vertex 6.4142135624e-01 3.5857864376e-01 1.1000000000e+00
      vertex 6.7320508076e-01 4.0000000000e-01 1.1000000000e+00
    endloop
  endfacet
  facet normal 0.000000e+00 0.000000e+00 -1.000000e+00
    outer loop
      vertex 5.0000000000e-01 5.0000000000e-01 -1.0000000000e-01
      vertex 6.9318516526e-01 4.4823619098e-01 -1.0000000000e-01
      vertex 6.7320508076e-01 4.0000000000e-01 -1.0000000000e-01
    endloop
  endfacet
  facet normal 0.000000e+00 0.000000e+00 1.000000e+00
    outer loop
      vertex 5.0000000000e-01 5.0000000000e-01 1.1000000000e+00
      vertex 6.7320508076e-01 4.0000000000e-01 1.1000000000e+00
      vertex 6.9318516526e-01 4.4823619098e-01 1.1000000000e+00
    endloop
  endfacet
  facet normal 0.000000e+00 0.000000e+00 -1.000000e+00
    outer loop
      vertex 5.0000000000e-01 5.0000000000e-01 -1.0000000000e-01
      vertex 7.0000000000e-01 5.0000000000e-01 -1.0000000000e-01
      vertex 6.9318516526e-01 4.4823619098e-01 -1.0000000000e-01
    endloop
  endfacet
  facet normal -0.000000e+00 0.000000e+00 1.000000e+00
    outer loop
      vertex 5.0000000000e-01 5.0000000000e-01 1.1000000000e+00
      vertex 6.9318516526e-01 4.4823619098e-01 1.1000000000e+00
      vertex 7.0000000000e-01 5.0000000000e-01 1.1000000000e+00
    endloop
  endfacet
endsolid capped_cylinder
