solid box_at
  facet normal 1.000000e+00 0.000000e+00 0.000000e+00
    outer loop
      vertex 3.0000000000e-01 3.0000000000e-01 3.0000000000e-01
      vertex 3.0000000000e-01 6.0000000000e-01 3.0000000000e-01
      vertex 3.0000000000e-01 6.0000000000e-01 6.0000000000e-01
    endloop
  endfacet
  facet normal 1.000000e+00 0.000000e+00 0.000000e+00
    outer loop
      vertex 3.0000000000e-01 3.0000000000e-01 3.0000000000e-01
      vertex 3.0000000000e-01 6.0000000000e-01 6.0000000000e-01
      vertex 3.0000000000e-01 3.0000000000e-01 6.0000000000e-01
    endloop
  endfacet
  facet normal -1.000000e+00 0.000000e+00 0.000000e+00
    outer loop
      vertex 6.0000000000e-01 3.0000000000e-01 3.0000000000e-01
      vertex 6.0000000000e-01 3.0000000000e-01 6.0000000000e-01
      vertex 6.0000000000e-01 6.0000000000e-01 6.0000000000e-01
    endloop
  endfacet
  facet normal -1.000000e+00 0.000000e+00 0.000000e+00
    outer loop
      vertex 6.0000000000e-01 3.0000000000e-01 3.0000000000e-01
      vertex 6.0000000000e-01 6.0000000000e-01 6.0000000000e-01
      vertex 6.0000000000e-01 6.0000000000e-01 3.0000000000e-01
    endloop
  endfacet
  facet normal 0.000000e+00 1.000000e+00 0.000000e+00
    outer loop
      vertex 3.0000000000e-01 3.0000000000e-01 3.0000000000e-01
      vertex 3.0000000000e-01 3.0000000000e-01 6.0000000000e-01
      vertex 6.0000000000e-01 3.0000000000e-01 6.0000000000e-01
    endloop
  endfacet
  facet normal 0.000000e+00 1.000000e+00 0.000000e+00
    outer loop
      vertex 3.0000000000e-01 3.0000000000e-01 3.0000000000e-01
      vertex 6.0000000000e-01 3.0000000000e-01 6.0000000000e-01
      vertex 6.0000000000e-01 3.0000000000e-01 3.0000000000e-01
    endloop
  endfacet
  facet normal 0.000000e+00 -1.000000e+00 0.000000e+00
    outer loop
      vertex 3.0000000000e-01 6.0000000000e-01 3.0000000000e-01
      vertex 6.0000000000e-01 6.0000000000e-01 3.0000000000e-01
      vertex 6.0000000000e-01 6.0000000000e-01 6.0000000000e-01
    endloop
  endfacet
  facet normal 0.000000e+00 -1.000000e+00 0.000000e+00
    outer loop
      vertex 3.0000000000e-01 6.0000000000e-01 3.0000000000e-01
      vertex 6.0000000000e-01 6.0000000000e-01 6.0000000000e-01
      vertex 3.0000000000e-01 6.0000000000e-01 6.0000000000e-01
    endloop
  endfacet
  facet normal 0.000000e+00 0.000000e+00 1.000000e+00
    outer loop
      vertex 3.0000000000e-01 3.0000000000e-01 3.0000000000e-01
      vertex 6.0000000000e-01 3.0000000000e-01 3.0000000000e-01
      vertex 6.0000000000e-01 6.0000000000e-01 3.0000000000e-01
    endloop
  endfacet
  facet normal 0.000000e+00 0.000000e+00 1.000000e+00
    outer loop
      vertex 3.0000000000e-01 3.0000000000e-01 3.0000000000e-01
      vertex 6.0000000000e-01 6.0000000000e-01 3.0000000000e-01
      vertex 3.0000000000e-01 6.0000000000e-01 3.0000000000e-01
    endloop
  endfacet
  facet normal 0.000000e+00 0.000000e+00 -1.000000e+00
    outer loop
      vertex 3.0000000000e-01 3.0000000000e-01 6.0000000000e-01
      vertex 3.0000000000e-01 6.0000000000e-01 6.0000000000e-01
      vertex 6.0000000000e-01 6.0000000000e-01 6.0000000000e-01
    endloop
  endfacet
  facet normal 0.000000e+00 0.000000e+00 -1.000000e+00
    outer loop
      vertex 3.0000000000e-01 3.0000000000e-01 6.0000000000e-01
      vertex 6.0000000000e-01 6.0000000000e-01 6.0000000000e-01
      vertex 6.0000000000e-01 3.0000000000e-01 6.0000000000e-01
    endloop
  endfacet
endsolid box_at
