solid box_at
  facet normal 1.000000e+00 0.000000e+00 0.000000e+00
    outer loop
      vertex 5.0000000000e-01 5.0000000000e-01 2.0000000000e-01
      vertex 5.0000000000e-01 8.0000000000e-01 2.0000000000e-01
      vertex 5.0000000000e-01 8.0000000000e-01 5.0000000000e-01
    endloop
  endfacet
  facet normal 1.000000e+00 0.000000e+00 0.000000e+00
    outer loop
      vertex 5.0000000000e-01 5.0000000000e-01 2.0000000000e-01
      vertex 5.0000000000e-01 8.0000000000e-01 5.0000000000e-01
      vertex 5.0000000000e-01 5.0000000000e-01 5.0000000000e-01
    endloop
  endfacet
  facet normal -1.000000e+00 0.000000e+00 0.000000e+00
    outer loop
      vertex 8.0000000000e-01 5.0000000000e-01 2.0000000000e-01
      vertex 8.0000000000e-01 5.0000000000e-01 5.0000000000e-01
      vertex 8.0000000000e-01 8.0000000000e-01 5.0000000000e-01
    endloop
  endfacet
  facet normal -1.000000e+00 0.000000e+00 0.000000e+00
    outer loop
      vertex 8.0000000000e-01 5.0000000000e-01 2.0000000000e-01
      vertex 8.0000000000e-01 8.0000000000e-01 5.0000000000e-01
      vertex 8.0000000000e-01 8.0000000000e-01 2.0000000000e-01
    endloop
  endfacet
  facet normal 0.000000e+00 1.000000e+00 0.000000e+00
    outer loop
      vertex 5.0000000000e-01 5.0000000000e-01 2.0000000000e-01
      vertex 5.0000000000e-01 5.0000000000e-01 5.0000000000e-01
      vertex 8.0000000000e-01 5.0000000000e-01 5.0000000000e-01
    endloop
  endfacet
  facet normal 0.000000e+00 1.000000e+00 0.000000e+00
    outer loop
      vertex 5.0000000000e-01 5.0000000000e-01 2.0000000000e-01
      vertex 8.0000000000e-01 5.0000000000e-01 5.0000000000e-01
      vertex 8.0000000000e-01 5.0000000000e-01 2.0000000000e-01
    endloop
  endfacet
  facet normal 0.000000e+00 -1.000000e+00 0.000000e+00
    outer loop
      vertex 5.0000000000e-01 8.0000000000e-01 2.0000000000e-01
      vertex 8.0000000000e-01 8.0000000000e-01 2.0000000000e-01
      vertex 8.0000000000e-01 8.0000000000e-01 5.0000000000e-01
    endloop
  endfacet
  facet normal 0.000000e+00 -1.000000e+00 0.000000e+00
    outer loop
      vertex 5.0000000000e-01 8.0000000000e-01 2.0000000000e-01
      vertex 8.0000000000e-01 8.0000000000e-01 5.0000000000e-01
      vertex 5.0000000000e-01 8.0000000000e-01 5.0000000000e-01
    endloop
  endfacet
  facet normal 0.000000e+00 0.000000e+00 1.000000e+00
    outer loop
      vertex 5.0000000000e-01 5.0000000000e-01 2.0000000000e-01
      vertex 8.0000000000e-01 5.0000000000e-01 2.0000000000e-01
      vertex 8.0000000000e-01 8.0000000000e-01 2.0000000000e-01
    endloop
  endfacet
  facet normal 0.000000e+00 0.000000e+00 1.000000e+00
    outer loop
      vertex 5.0000000000e-01 5.0000000000e-01 2.0000000000e-01
      vertex 8.0000000000e-01 8.0000000000e-01 2.0000000000e-01
      vertex 5.0000000000e-01 8.0000000000e-01 2.0000000000e-01
    endloop
  endfacet
  facet normal 0.000000e+00 0.000000e+00 -1.000000e+00
    outer loop
      vertex 5.0000000000e-01 5.0000000000e-01 5.0000000000e-01
      vertex 5.0000000000e-01 8.0000000000e-01 5.0000000000e-01
      vertex 8.0000000000e-01 8.0000000000e-01 5.0000000000e-01
    endloop
  endfacet
  facet normal 0.000000e+00 0.000000e+00 -1.000000e+00
    outer loop
      vertex 5.0000000000e-01 5.0000000000e-01 5.0000000000e-01
      vertex 8.0000000000e-01 8.0000000000e-01 5.0000000000e-01
      vertex 8.0000000000e-01 5.0000000000e-01 5.0000000000e-01
    endloop
  endfacet
endsolid box_at
